<?xml version="1.0" encoding="UTF-8"?>
<svg xmlns="http://www.w3.org/2000/svg" xmlns:xlink="http://www.w3.org/1999/xlink" viewBox="0 0 48 48" width="48px" height="48px">
<g id="surface45733642">
<path style=" stroke:none;fill-rule:nonzero;fill:rgb(7.843138%,15.294118%,26.666668%);fill-opacity:1;" d="M 24 4 C 23.464844 4 22.953125 4.214844 22.578125 4.59375 L 2.40625 22.195312 C 2.152344 22.382812 2 22.683594 2 23 C 2 23.550781 2.449219 24 3 24 L 8 24 L 8 40 C 8 41.105469 8.894531 42 10 42 L 18 42 C 19.105469 42 20 41.105469 20 40 L 20 28 L 28 28 L 28 40 C 28 41.105469 28.894531 42 30 42 L 38 42 C 39.105469 42 40 41.105469 40 40 L 40 24 L 45 24 C 45.550781 24 46 23.550781 46 23 C 46 22.683594 45.847656 22.382812 45.59375 22.195312 L 25.433594 4.605469 C 25.429688 4.601562 25.425781 4.597656 25.421875 4.59375 C 25.046875 4.214844 24.535156 4 24 4 Z M 24 4 "/>
</g>
</svg>
